<svg width="600" height="80" viewBox="0 0 600 80" fill="none" xmlns="http://www.w3.org/2000/svg">
<path d="M597 71L588 80L579 71L570 80L561 71L552 80L543 71L534 80L525 71L516 80L507 71L498 80L489 71L480 80L471 71L462 80L453 71L444 80L435 71L426 80L417 71L408 80L399 71L390 80L381 71L372 80L363 71L354 80L345 71L336 80L327 71L318 80L309 71L300 80L291 71L282 80L273 71L264 80L255 71L246 80L237 71L228 80L219 71L210 80L201 71L192 80L183 71L174 80L165 71L156 80L147 71L138 80L129 71L120 80L111 71L102 80L93 71L84 80L75 71L66 80L57 71L48 80L39 71L30 80L21 71L12 80L3 71L0 74V0H600V74L597 71Z" fill="#F9FAFF"/>
</svg>
